<svg width="47" height="45" viewBox="0 0 47 45" fill="none" xmlns="http://www.w3.org/2000/svg" class="main-features-item__icon main-features-item__icon--time"><path d="M22.115 43.72C10.453 43.72 1 34.26 1 22.59 1 14.04 6.078 6.674 13.381 3.349m29.471 15.247c-1.82-9.52-10.024-16.77-19.982-17.12a.735.735 0 0 0-.755.741v9.433m5.633 32.825c0-5.834 3.893-10.564 8.695-10.564m0 0c4.801 0 8.694 4.73 8.694 10.565M36.443 33.91c4.801 0 8.694-4.73 8.694-10.564M36.443 33.91c-4.802 0-8.695-4.73-8.695-10.564m-1.863-.755H47M25.885 43.72H47M13.377 3.35a20.948 20.948 0 0 1 4.369-1.435m-4.68 11.998l7.73 8.791c.364.413.565.945.565 1.496v8.578" stroke="#fff" stroke-width="1.5"></path></svg>