<svg width="57" height="31" viewBox="0 0 57 31" fill="none" xmlns="http://www.w3.org/2000/svg" class="main-features-item__icon main-features-item__icon--car"><path d="M8.358 23.4H3.992a2 2 0 0 1-1.914-1.421l-.783-2.59a8 8 0 0 1 1.679-7.63L11.94 1.67A2 2 0 0 1 13.435 1H34.28a2 2 0 0 1 1.41.58l8.039 7.98a8 8 0 0 0 3.299 1.974l7.556 2.308A2 2 0 0 1 56 15.754V21.4a2 2 0 0 1-2 2h-4.687m-29.253 0h17.97" stroke="#fff" stroke-width="1.5"></path><path d="M20.145 23.4c0 3.246-2.652 5.887-5.936 5.887s-5.937-2.64-5.937-5.887c0-3.246 2.653-5.887 5.937-5.887 3.284 0 5.936 2.641 5.936 5.887zM49.4 23.4c0 3.246-2.653 5.887-5.937 5.887-3.284 0-5.937-2.64-5.937-5.887 0-3.246 2.653-5.887 5.937-5.887 3.284 0 5.937 2.641 5.937 5.887zM18.388 10.956h20.478" stroke="#fff" stroke-width="1.5"></path></svg>